# xmcd
#
# Track frame offsets:
#	150
#	17355
#	35311
#	51708
#	70111
#	86800
#	101945
#	120926
#	140454
#	156577
#	169286
#	179959
#	194958
#	211202
#	228880
#
# Disc length: 3280 seconds
#
# Revision: 0
# Processed by: cddbd v1.5.2PL0 Copyright (c) Steve Scherf et al.
# Submitted via: EZCDAudioConverter 2.2.2.1
#
DISCID=e10cce0f
DTITLE=Various Artist - Singers and Songwriters: Country USA
DYEAR=1900
DGENRE=Country
TTITLE0=Alabama - If You're Gonna Play In Texas
TTITLE1=Joe Diffie - Bigger Than The Beatles
TTITLE2=Charlie Daniels - The Devil Went Down To Georgia
TTITLE3=Juice Newton - Break It To Me Gently
TTITLE4=David Allan Coe - Mona Lisa Lost Her Smile
TTITLE5=Nitty Gritty Dirt Band - The Long Hard Road (The Sharecropper's Dream)
TTITLE6=Jimmy Buffett - Margaritaville
TTITLE7=Vince Gill - Whenever You Come Arround
TTITLE8=Randy Travis - Forever And Ever, Amen
TTITLE9=Don Williams - You're My Best Friend
TTITLE10=Jachy Ward feat. Reba McEntire - I'd Really Love To See You Tonight
TTITLE11=Brooks and Dunn - Boot Scootin' Boogie
TTITLE12=Eddie Rabbit - Rocky Mountain Musik
TTITLE13=Emmylou Harris - Together Again
TTITLE14=T.G. Sheppard - Last Cheater's Waltz
EXTD=
EXTT0=
EXTT1=
EXTT2=
EXTT3=
EXTT4=
EXTT5=
EXTT6=
EXTT7=
EXTT8=
EXTT9=
EXTT10=
EXTT11=
EXTT12=
EXTT13=
EXTT14=
PLAYORDER=
